<svg viewBox="0 0 24 24" xmlns="http://www.w3.org/2000/svg"><path d="M6.763 10.036c0 .296.032.535.088.71.064.176.144.367.256.576a.348.348 0 0 1 .056.192c0 .08-.048.16-.152.24l-.503.335a.381.381 0 0 1-.208.072c-.08 0-.16-.04-.239-.112a2.477 2.477 0 0 1-.287-.375 6.18 6.18 0 0 1-.248-.471c-.622.733-1.405 1.1-2.347 1.1-.67 0-1.205-.191-1.596-.575-.392-.384-.588-.895-.588-1.535 0-.68.239-1.23.726-1.644.487-.416 1.136-.624 1.96-.624.272 0 .551.024.84.064.288.04.585.104.896.176v-.583c0-.607-.127-1.032-.375-1.287-.255-.256-.694-.38-1.32-.38-.283 0-.575.032-.863.104a6.374 6.374 0 0 0-.862.272 2.287 2.287 0 0 1-.184.072.326.326 0 0 1-.08.016c-.08 0-.12-.056-.12-.176v-.391c0-.088.016-.16.048-.2.032-.04.096-.08.192-.12.28-.144.616-.264 1.01-.36a4.906 4.906 0 0 1 1.246-.152c.95 0 1.644.216 2.091.647.44.432.662 1.088.662 1.963v2.586zm-3.24 1.214c.263 0 .534-.048.822-.144.287-.096.543-.272.758-.518.128-.152.224-.32.272-.512.047-.192.08-.423.08-.694v-.335a6.66 6.66 0 0 0-.712-.136 5.792 5.792 0 0 0-.728-.048c-.535 0-.927.104-1.182.32-.256.216-.38.528-.38.94 0 .39.096.679.304.878.191.2.47.296.766.296zm6.41 1.036c-.096 0-.16-.016-.208-.056-.048-.032-.088-.112-.12-.224L7.78.612c-.032-.12-.048-.2-.048-.248 0-.096.048-.152.144-.152h.783c.104 0 .176.016.216.056.048.032.08.112.12.224l1.182 4.666 1.1-4.666c.032-.12.064-.192.104-.224a.384.384 0 0 1 .224-.056h.64c.104 0 .176.016.224.056.048.032.088.112.104.224l1.112 4.722 1.217-4.722c.032-.12.072-.192.112-.224.048-.032.12-.056.216-.056h.743c.096 0 .152.048.152.152 0 .032-.008.064-.016.104a.995.995 0 0 1-.04.152l-1.698 6.773c-.032.12-.072.192-.12.224-.048.032-.12.056-.208.056h-.688c-.104 0-.176-.016-.224-.056-.048-.04-.088-.12-.104-.232l-1.091-4.542-1.084 4.534c-.024.12-.056.192-.104.232-.048.04-.128.056-.224.056h-.688zm10.256.215c-.415 0-.83-.048-1.229-.143-.399-.096-.71-.2-.918-.32-.128-.071-.216-.151-.248-.224a.556.556 0 0 1-.048-.224v-.407c0-.12.048-.176.128-.176a.31.31 0 0 1 .112.016 1.634 1.634 0 0 1 .16.072 3.486 3.486 0 0 0 .752.336c.271.088.551.128.831.128.44 0 .784-.096 1.023-.28.24-.184.368-.456.368-.8 0-.232-.072-.424-.224-.584-.152-.16-.44-.304-.856-.44l-1.23-.383c-.616-.192-1.072-.477-1.352-.856-.28-.373-.424-.793-.424-1.24 0-.36.08-.68.232-.96a2.31 2.31 0 0 1 .624-.72 2.706 2.706 0 0 1 .903-.456 3.627 3.627 0 0 1 1.08-.152c.184 0 .383.016.567.04.192.032.367.072.535.112.16.048.312.096.455.152.144.056.256.112.336.168.112.072.192.144.232.224.04.072.064.168.064.288v.375c0 .12-.048.184-.128.184-.048 0-.12-.024-.216-.072a4.024 4.024 0 0 0-1.08-.232c-.398 0-.714.08-.942.248-.224.168-.336.424-.336.776 0 .24.08.44.24.592.16.152.456.304.88.44l1.208.384c.608.192 1.048.456 1.312.8.264.344.392.736.392 1.168 0 .368-.072.704-.224.999a2.32 2.32 0 0 1-.64.76c-.272.216-.6.376-.984.488a4.426 4.426 0 0 1-1.255.176z" fill="#252F3E"/><path d="M21.725 11.393c-2.549 1.884-6.24 2.886-9.42 2.886-4.46 0-8.478-1.648-11.515-4.387-.24-.216-.024-.512.264-.344 3.278 1.907 7.327 3.06 11.515 3.06 2.824 0 5.928-.584 8.784-1.792.432-.184.792.28.372.577z" fill="#FF9900"/><path d="M22.8 10.132c-.32-.416-2.135-.2-2.95-.096-.248.032-.288-.184-.064-.344 1.448-1.015 3.816-.72 4.091-.383.274.344-.072 2.72-1.432 3.855-.207.176-.407.08-.32-.144.305-.776.998-2.52.675-2.888z" fill="#FF9900"/></svg>
