<svg viewBox="0 0 24 24" xmlns="http://www.w3.org/2000/svg"><path d="M10.286 0A1.714 1.714 0 0 0 8.571 1.714v20.572A1.714 1.714 0 0 0 10.286 24h3.428a1.714 1.714 0 0 0 1.715-1.714V1.714A1.714 1.714 0 0 0 13.714 0zm-6.857 6.857A1.714 1.714 0 0 0 1.714 8.57v13.715A1.714 1.714 0 0 0 3.43 24h3.428a1.714 1.714 0 0 0 1.714-1.714V8.571A1.714 1.714 0 0 0 6.857 6.857zm13.714 3.429A1.714 1.714 0 0 0 15.43 12v10.286A1.714 1.714 0 0 0 17.143 24h3.428a1.714 1.714 0 0 0 1.715-1.714V12a1.714 1.714 0 0 0-1.715-1.714z" fill="#F2C811"/></svg>
